<svg width="35" height="25" viewBox="0 0 30 47" fill="none" xmlns="http://www.w3.org/2000/svg">
<path d="M17.5 20.8672C19.4778 20.8672 21.4112 20.2553 23.0557 19.1088C24.7002 17.9624 25.9819 16.3329 26.7388 14.4264C27.4957 12.5199 27.6937 10.422 27.3079 8.39811C26.922 6.37419 25.9696 4.5151 24.5711 3.05594C23.1725 1.59677 21.3907 0.603066 19.4509 0.200483C17.5111 -0.202099 15.5004 0.00452068 13.6732 0.794216C11.8459 1.58391 10.2841 2.92121 9.1853 4.63701C8.08649 6.35281 7.5 8.37004 7.5 10.4336C7.5 13.2008 8.55357 15.8546 10.4289 17.8113C12.3043 19.768 14.8478 20.8672 17.5 20.8672Z" fill="white"/>
<path d="M32.5 46.9511C33.163 46.9511 33.7989 46.6763 34.2678 46.1872C34.7366 45.698 35 45.0345 35 44.3427C35 39.5002 33.1563 34.856 29.8744 31.4318C26.5925 28.0076 22.1413 26.0839 17.5 26.0839C12.8587 26.0839 8.40752 28.0076 5.12563 31.4318C1.84374 34.856 6.91606e-08 39.5002 0 44.3427C0 45.0345 0.263393 45.698 0.732234 46.1872C1.20107 46.6763 1.83696 46.9511 2.5 46.9511H32.5Z" fill="white"/>
</svg>
